<svg width="21" height="20" viewBox="0 0 21 20" fill="none" xmlns="http://www.w3.org/2000/svg">
<path d="M17.5907 -0.00332568C17.7455 0.0310386 17.883 0.0654028 18.0378 0.0997671C19.1557 0.409045 19.9468 1.38843 20.0156 2.53963C20.0156 2.62554 20.0156 2.71145 20.0156 2.79736C20.0156 7.59118 20.0156 12.3678 20.0156 17.1616C20.0156 18.4846 19.2245 19.5499 17.9862 19.8764C17.8486 19.9108 17.7111 19.9451 17.5735 19.9795C12.5172 19.9795 7.46102 19.9795 2.40479 19.9795C2.37039 19.9623 2.33599 19.9451 2.3016 19.9451C1.14933 19.7389 0.392612 19.0517 0.0658487 17.9348C0.0314526 17.8145 0.0142545 17.6943 -0.0201416 17.5568C-0.0201416 12.5053 -0.0201416 7.45372 -0.0201416 2.40217C-0.00294354 2.36781 0.0142545 2.33344 0.0142545 2.29908C0.220631 1.14788 0.908554 0.391863 2.02643 0.0654028C2.14681 0.0310386 2.2672 0.0138564 2.40479 -0.0205078C7.47821 -0.00332568 12.5344 -0.00332568 17.5907 -0.00332568ZM9.31841 6.57743C9.28401 6.56025 9.28401 6.54307 9.26681 6.54307C9.21522 6.52588 9.16362 6.49152 9.09483 6.47434C8.26933 6.19942 7.42662 6.18224 6.58391 6.38843C6.46353 6.42279 6.36034 6.42279 6.23995 6.37124C5.15648 5.92451 3.90102 6.71489 3.86662 7.90045C3.83222 9.3953 3.83222 10.8901 3.86662 12.385C3.88382 13.4503 4.9157 14.2235 5.96478 14.0001C6.77309 13.8283 7.34063 13.1066 7.34063 12.2475C7.34063 11.4056 7.34063 10.5637 7.34063 9.72176C7.34063 9.51557 7.34063 9.29221 7.37503 9.08602C7.54701 8.00355 8.16614 7.23035 9.11203 6.6977C9.18082 6.64616 9.24961 6.61179 9.31841 6.57743ZM14.667 7.12726C14.5122 7.00698 14.409 6.90389 14.2714 6.83516C12.7924 5.97606 11.2962 6.0276 9.85155 6.88671C8.92285 7.43654 8.35532 8.29564 8.32092 9.3953C8.28652 10.3747 8.26932 11.3541 8.32092 12.3334C8.37251 13.3644 9.16362 14.0517 10.1611 14.0001C11.0898 13.9657 11.7949 13.1582 11.7949 12.1616C11.7949 11.5431 11.7949 10.9245 11.7949 10.306C11.7949 9.96231 11.7949 9.60148 11.8293 9.25784C11.9497 8.17537 12.8268 7.29908 13.9103 7.14444C14.1339 7.14444 14.3746 7.14444 14.667 7.12726ZM16.2148 11.0276C16.2148 10.6668 16.232 10.306 16.2148 9.94513C16.1804 9.56712 16.146 9.18911 16.0429 8.82829C15.8365 8.19255 15.4065 7.78018 14.7186 7.71145C13.9791 7.64272 13.4115 7.952 13.0332 8.60492C12.8268 8.96575 12.7408 9.37812 12.7408 9.79049C12.7408 10.6496 12.7408 11.4915 12.7408 12.3506C12.7408 12.4365 12.7408 12.5224 12.758 12.6084C12.93 13.519 13.7383 14.1032 14.667 14.0173C15.5269 13.9486 16.1976 13.1925 16.1976 12.2991C16.2148 11.8695 16.2148 11.4572 16.2148 11.0276Z" fill="#CFCFCF"/>
</svg>
